<?xml version="1.0" standalone="no"?>
<!DOCTYPE svg PUBLIC "-//W3C//DTD SVG 20010904//EN"
 "http://www.w3.org/TR/2001/REC-SVG-20010904/DTD/svg10.dtd">
<svg version="1.0" xmlns="http://www.w3.org/2000/svg"
 width="512.000000pt" height="512.000000pt" viewBox="0 0 512.000000 512.000000"
 preserveAspectRatio="xMidYMid meet">
<metadata>
Created by potrace 1.14, written by Peter Selinger 2001-2017
</metadata>
<g transform="translate(0.000000,512.000000) scale(0.100000,-0.100000)"
fill="#000000" stroke="none">
<path d="M2355 5114 c-27 -2 -108 -13 -180 -25 -568 -90 -1037 -330 -1438
-735 -136 -139 -201 -217 -302 -369 -214 -321 -342 -649 -407 -1047 -31 -192
-31 -552 0 -753 123 -791 582 -1459 1277 -1858 200 -114 499 -226 730 -271
235 -46 283 -50 525 -50 242 0 290 4 525 50 231 45 530 157 730 271 695 399
1154 1067 1277 1858 31 200 31 550 0 750 -59 377 -196 732 -401 1041 -107 160
-170 237 -309 378 -396 400 -847 634 -1412 732 -115 20 -188 26 -355 28 -115
2 -232 2 -260 0z m765 -1304 c324 -52 524 -220 561 -472 20 -139 -12 -282 -90
-396 -88 -130 -259 -244 -432 -289 -38 -9 -68 -22 -66 -28 2 -5 29 -13 59 -17
191 -24 335 -136 405 -315 24 -60 27 -82 27 -193 1 -149 -10 -203 -71 -330
-40 -83 -58 -107 -142 -190 -108 -107 -200 -165 -334 -211 -188 -64 -166 -62
-934 -66 -641 -4 -703 -3 -703 12 0 22 409 2486 415 2504 4 11 109 12 618 8
403 -3 637 -9 687 -17z"/>
<path d="M2405 3258 c-3 -13 -18 -106 -35 -208 -17 -102 -33 -198 -36 -213
l-6 -29 189 4 189 3 66 33 c116 57 188 162 188 275 0 77 -29 114 -109 142 -34
11 -90 15 -243 15 -197 0 -198 0 -203 -22z"/>
<path d="M2256 2353 c-3 -16 -22 -125 -41 -243 -19 -118 -37 -225 -40 -237
l-5 -23 197 0 c264 0 340 21 434 121 83 87 114 247 62 317 -57 76 -125 92
-394 92 l-207 0 -6 -27z"/>
</g>
</svg>
